<svg width="132" height="132" viewBox="0 0 132 132" fill="none" xmlns="http://www.w3.org/2000/svg">
<path d="M41.25 41.25H37.125C33.8429 41.25 30.6953 42.5538 28.3746 44.8746C26.0538 47.1953 24.75 50.3429 24.75 53.625V94.875C24.75 98.1571 26.0538 101.305 28.3746 103.625C30.6953 105.946 33.8429 107.25 37.125 107.25H78.375C81.6571 107.25 84.8047 105.946 87.1254 103.625C89.4462 101.305 90.75 98.1571 90.75 94.875V53.625C90.75 50.3429 89.4462 47.1953 87.1254 44.8746C84.8047 42.5538 81.6571 41.25 78.375 41.25H74.25M74.25 24.75L57.75 8.25M57.75 8.25L41.25 24.75M57.75 8.25V70.125M90.75 57.75H94.875C98.1571 57.75 101.305 59.0538 103.625 61.3746C105.946 63.6953 107.25 66.8429 107.25 70.125V111.375C107.25 114.657 105.946 117.805 103.625 120.125C101.305 122.446 98.1571 123.75 94.875 123.75H53.625C50.3429 123.75 47.1953 122.446 44.8746 120.125C42.5538 117.805 41.25 114.657 41.25 111.375V107.25" stroke="black" stroke-width="3" stroke-linecap="round" stroke-linejoin="round"/>
</svg>
